<?xml version="1.0" encoding="utf-8"?>
<!-- Generator: Adobe Illustrator 22.0.0, SVG Export Plug-In . SVG Version: 6.00 Build 0)  -->
<svg version="1.1" xmlns="http://www.w3.org/2000/svg" xmlns:xlink="http://www.w3.org/1999/xlink" x="0px" y="0px"
	 viewBox="0 0 64 64" style="enable-background:new 0 0 64 64;" xml:space="preserve">
<g id="Layer_1">
</g>
<g id="Layer_2">
</g>
<g id="Layer_3">
</g>
<g id="Layer_4">
</g>
<g id="Layer_5">
</g>
<g id="Layer_6">
</g>
<g id="Layer_7">
</g>
<g id="Layer_8">
</g>
<g id="Layer_9">
	<g>
		<g>
			<g>
				<circle style="fill:#FCCD45;" cx="32" cy="32" r="28"/>
				<path style="fill:#F8B543;" d="M32,4c-0.3,0-0.7,0-1,0c13.9,0.5,25,12,25,26c0,14.4-11.6,26-26,26C16,56,4.6,44.9,4,31
					c0,0.3,0,0.7,0,1c0,15.5,12.5,28,28,28s28-12.5,28-28C60,16.5,47.5,4,32,4z"/>
			</g>
		</g>
		<path style="fill:none;stroke:#FFFFFF;stroke-width:3;stroke-linecap:round;stroke-miterlimit:10;" d="M19.5,10.3
			c-3.8,2.2-7,5.4-9.2,9.2"/>
	</g>
</g>
<g id="Layer_10">
	<g>
		
			<polyline style="fill:none;stroke:#000000;stroke-width:1.8257;stroke-linecap:round;stroke-linejoin:round;stroke-miterlimit:10;" points="
			16,23 26,27 16,31 		"/>
		
			<polyline style="fill:none;stroke:#000000;stroke-width:1.8257;stroke-linecap:round;stroke-linejoin:round;stroke-miterlimit:10;" points="
			48,23 38,27 48,31 		"/>
	</g>
	
		<polyline style="fill:none;stroke:#000000;stroke-width:2;stroke-linecap:round;stroke-linejoin:round;stroke-miterlimit:10;" points="
		17,46 22,42 27,46 32,42 37,46 42,42 47,46 	"/>
</g>
</svg>
