<?xml version="1.0" encoding="utf-8"?>
<!-- Generator: Adobe Illustrator 22.0.0, SVG Export Plug-In . SVG Version: 6.00 Build 0)  -->
<svg version="1.1" xmlns="http://www.w3.org/2000/svg" xmlns:xlink="http://www.w3.org/1999/xlink" x="0px" y="0px"
	 viewBox="0 0 64 64" style="enable-background:new 0 0 64 64;" xml:space="preserve">
<g id="Layer_1">
</g>
<g id="Layer_2">
</g>
<g id="Layer_3">
</g>
<g id="Layer_4">
</g>
<g id="Layer_5">
</g>
<g id="Layer_6">
</g>
<g id="Layer_7">
</g>
<g id="Layer_8">
</g>
<g id="Layer_9">
	<g>
		<g>
			<g>
				<circle style="fill:#FCCD45;" cx="32" cy="32" r="28"/>
				<path style="fill:#F8B543;" d="M32,4c-0.3,0-0.7,0-1,0c13.9,0.5,25,12,25,26c0,14.4-11.6,26-26,26C16,56,4.6,44.9,4,31
					c0,0.3,0,0.7,0,1c0,15.5,12.5,28,28,28s28-12.5,28-28C60,16.5,47.5,4,32,4z"/>
			</g>
		</g>
		<path style="fill:none;stroke:#FFFFFF;stroke-width:3;stroke-linecap:round;stroke-miterlimit:10;" d="M19.5,10.3
			c-3.8,2.2-7,5.4-9.2,9.2"/>
	</g>
</g>
<g id="Layer_10">
	<g>
		<ellipse style="fill:#FFFFFF;" cx="26.5" cy="22.5" rx="7.5" ry="8.5"/>
		<circle cx="26.5" cy="17.5" r="1.5"/>
	</g>
	<g>
		<ellipse style="fill:#FFFFFF;" cx="45.5" cy="22.5" rx="7.5" ry="8.5"/>
		<circle cx="45.5" cy="17.5" r="1.5"/>
	</g>
	<path style="fill:none;stroke:#000000;stroke-width:1.85;stroke-linecap:round;stroke-miterlimit:10;" d="M44,39.6c0,0-10-3.2-16,5
		"/>
	<path style="fill:#FFFFFF;" d="M32.8,62.9c-0.4-0.1-0.7-0.4-0.9-0.8l-3.3-7c-0.3-0.7,0-1.5,0.4-2l0.5-0.5c0.9-1,2.7-3,3.2-3.8
		c0.5-0.8,0.6-2.1,0.7-3.5c0.1-0.9,0.1-1.8,0.3-2.7c0.2-1.1,0.8-1.9,1.8-2.3c0.7-0.3,1.6-0.4,2.3-0.1c1,0.4,1.7,1.3,1.7,2.5
		c0,1.1,0,2.5-0.1,3.8c0,0.2,0.2,0.3,0.3,0.4c0.1,0,0.3,0.1,0.6,0l10.7-5.1c1.1-0.5,1.9-0.4,2.4-0.2c1,0.4,1.7,1.3,1.7,2.3
		c0.1,1.2-0.6,2.2-1.8,2.8l-3.9,1.9c0.5,0.9,0.5,2-0.1,3c0.9,1.1,1,2.5,0.1,3.8c0.3,0.8,0.7,3-2,4.8c-0.4,0.3-0.8,0.5-1.3,0.7
		c-2.1,1-4.6,1.3-8.3,1l-3.5,1.2C33.8,63,33.3,63,32.8,62.9L32.8,62.9z"/>
	<path style="fill:#E8A442;" d="M51.3,42.5l-10.7,5.1c-1.1,0.5-2.4-0.2-2.3-1.3c0.1-1.2,0.1-2.4,0.1-3.7c0-1.4-1.5-2-2.6-1.4
		c-0.6,0.3-1,0.8-1.2,1.6c-0.5,2.4-0.1,5-1.2,6.6c-0.7,1-2.9,3.5-3.7,4.4c-0.2,0.2-0.4,0.6-0.3,0.9l3.3,7c0.2,0.3,0.7,0.4,1.1,0.3
		l3.5-1.2c0.1,0,0.3-0.1,0.4-0.1c3.6,0.3,5.9,0,7.8-0.9c0.4-0.2,0.8-0.4,1.2-0.7c2.2-1.5,1.9-3.1,1.6-3.8c-0.1-0.2-0.1-0.5,0.1-0.7
		c0.9-1.3,0.3-2.3-0.1-2.9c-0.2-0.2-0.2-0.6-0.1-0.8c0.7-1.1,0.4-1.9,0-2.4c-0.3-0.4,0-0.8,0.4-1.1l4.1-1.9
		C55.2,44.4,53.8,41.3,51.3,42.5z"/>
</g>
</svg>
